STARTFONT 2.1
COMMENT
COMMENT Converted from OpenType font "led.ttf" by "otf2bdf 3.0".
COMMENT
FONT -FreeType-LED Dot Matrix-Medium-R-Normal--46-460-72-72-P-194-ISO10646-1
SIZE 46 72 72
FONTBOUNDINGBOX 49 42 0 -5
STARTPROPERTIES 19
FOUNDRY "FreeType"
FAMILY_NAME "LED Dot Matrix"
WEIGHT_NAME "Medium"
SLANT "R"
SETWIDTH_NAME "Normal"
ADD_STYLE_NAME ""
PIXEL_SIZE 46
POINT_SIZE 460
RESOLUTION_X 72
RESOLUTION_Y 72
SPACING "P"
AVERAGE_WIDTH 194
CHARSET_REGISTRY "ISO10646"
CHARSET_ENCODING "1"
FONT_ASCENT 37
FONT_DESCENT 5
COPYRIGHT "-FreeType-LED Dot Matrix-Medium-R-Normal--46-460-72-72-P-194-ISO10646-1"
_OTF_FONTFILE "led.ttf"
_OTF_PSNAME "LEDDotMatrixRegular"
ENDPROPERTIES
CHARS 138
STARTCHAR 0000
ENCODING 0
SWIDTH 0 0
DWIDTH 0 0
BBX 0 0 0 0
BITMAP
ENDCHAR
STARTCHAR 000A
ENCODING 10
SWIDTH 130 0
DWIDTH 6 0
BBX 0 0 0 0
BITMAP
ENDCHAR
STARTCHAR 000D
ENCODING 13
SWIDTH 130 0
DWIDTH 6 0
BBX 0 0 0 0
BITMAP
ENDCHAR
STARTCHAR 0020
ENCODING 32
SWIDTH 434 0
DWIDTH 20 0
BBX 0 0 0 0
BITMAP
ENDCHAR
STARTCHAR 0021
ENCODING 33
SWIDTH 217 0
DWIDTH 10 0
BBX 4 32 3 0
BITMAP
60
F0
F0
60
00
60
F0
F0
60
60
F0
F0
60
00
60
F0
F0
60
00
60
F0
F0
60
00
00
00
00
00
60
F0
F0
60
ENDCHAR
STARTCHAR 0024
ENCODING 36
SWIDTH 652 0
DWIDTH 30 0
BBX 23 42 3 -5
BITMAP
001800
003C00
003C00
001800
000000
0319C0
07BDE0
07BDE0
0319C0
60180E
F03C0E
F03C0E
60180E
000000
601800
F03C00
F03C00
601800
000000
0319C0
07BDE0
07BDE0
0319C0
00180E
003C0E
003C0E
00180E
000000
60180E
F03C0E
F03C0E
60180E
000000
0319C0
07BDE0
07BDE0
0319C0
000000
001800
003C00
003C00
001800
ENDCHAR
STARTCHAR 0025
ENCODING 37
SWIDTH 652 0
DWIDTH 30 0
BBX 23 32 3 0
BITMAP
63000E
F7800E
F7800E
63000E
000000
63000E
F7800E
F7800E
63000E
0001C0
0001E0
0001E0
0001C0
000000
001800
003C00
003C00
001800
000000
030000
078000
078000
030000
6001CE
F001EE
F001EE
6001CE
000000
6001CE
F001EE
F001EE
6001CE
ENDCHAR
STARTCHAR 002B
ENCODING 43
SWIDTH 630 0
DWIDTH 29 0
BBX 23 23 3 5
BITMAP
003800
003800
003C00
003800
003800
003800
003C00
003800
000000
6339CC
F7BBDE
F7BFDE
6339CC
000000
003800
003800
003C00
003800
000000
003800
003800
003C00
003800
ENDCHAR
STARTCHAR 002C
ENCODING 44
SWIDTH 326 0
DWIDTH 15 0
BBX 9 9 3 -5
BITMAP
0300
0780
0780
0300
0000
6000
F000
F000
6000
ENDCHAR
STARTCHAR 002D
ENCODING 45
SWIDTH 630 0
DWIDTH 29 0
BBX 23 4 3 15
BITMAP
6339CC
F7BFDE
F7BFDE
6339CC
ENDCHAR
STARTCHAR 002E
ENCODING 46
SWIDTH 217 0
DWIDTH 10 0
BBX 4 4 3 0
BITMAP
60
F0
F0
60
ENDCHAR
STARTCHAR 0030
ENCODING 48
SWIDTH 652 0
DWIDTH 30 0
BBX 23 32 3 0
BITMAP
0319C0
07BDE0
07BDE0
0319C0
000000
60000E
F0000E
F0000E
60000E
6001CE
F001EE
F001EE
6001CE
000000
60180E
F03C0E
F03C0E
60180E
000000
63000E
F7800E
F7800E
63000E
60000E
F0000E
F0000E
60000E
000000
0319C0
07BDE0
07BDE0
0319C0
ENDCHAR
STARTCHAR 0031
ENCODING 49
SWIDTH 434 0
DWIDTH 20 0
BBX 14 32 3 0
BITMAP
0300
0780
0780
0300
0000
6300
F780
F780
6300
0300
0780
0780
0300
0000
0300
0780
0780
0300
0000
0300
0780
0780
0300
0300
0780
0780
0300
0000
6318
F7BC
F7BC
6318
ENDCHAR
STARTCHAR 0032
ENCODING 50
SWIDTH 652 0
DWIDTH 30 0
BBX 23 32 3 0
BITMAP
0319C0
07BDE0
07BDE0
0319C0
000000
60000E
F0000E
F0000E
60000E
00000E
00000E
00000E
00000E
000000
0001C0
0001E0
0001E0
0001C0
000000
001800
003C00
003C00
001800
030000
078000
078000
030000
000000
6319CE
F7BDEE
F7BDEE
6319CE
ENDCHAR
STARTCHAR 0033
ENCODING 51
SWIDTH 652 0
DWIDTH 30 0
BBX 23 32 3 0
BITMAP
6319C0
F7BDE0
F7BDE0
6319C0
000000
00000E
00000E
00000E
00000E
00000E
00000E
00000E
00000E
000000
0319C0
07BDE0
07BDE0
0319C0
000000
00000E
00000E
00000E
00000E
00000E
00000E
00000E
00000E
000000
6319C0
F7BDE0
F7BDE0
6319C0
ENDCHAR
STARTCHAR 0034
ENCODING 52
SWIDTH 652 0
DWIDTH 30 0
BBX 23 32 3 0
BITMAP
60000E
F0000E
F0000E
60000E
000000
60000E
F0000E
F0000E
60000E
60000E
F0000E
F0000E
60000E
000000
6319CE
F7BDEE
F7BDEE
6319CE
000000
00000E
00000E
00000E
00000E
00000E
00000E
00000E
00000E
000000
00000E
00000E
00000E
00000E
ENDCHAR
STARTCHAR 0035
ENCODING 53
SWIDTH 652 0
DWIDTH 30 0
BBX 23 32 3 0
BITMAP
6319CE
F7BDEE
F7BDEE
6319CE
000000
600000
F00000
F00000
600000
600000
F00000
F00000
600000
000000
6319C0
F7BDE0
F7BDE0
6319C0
000000
00000E
00000E
00000E
00000E
00000E
00000E
00000E
00000E
000000
6319C0
F7BDE0
F7BDE0
6319C0
ENDCHAR
STARTCHAR 0036
ENCODING 54
SWIDTH 652 0
DWIDTH 30 0
BBX 23 32 3 0
BITMAP
0319C0
07BDE0
07BDE0
0319C0
000000
600000
F00000
F00000
600000
600000
F00000
F00000
600000
000000
6319C0
F7BDE0
F7BDE0
6319C0
000000
60000E
F0000E
F0000E
60000E
60000E
F0000E
F0000E
60000E
000000
0319C0
07BDE0
07BDE0
0319C0
ENDCHAR
STARTCHAR 0037
ENCODING 55
SWIDTH 652 0
DWIDTH 30 0
BBX 23 32 3 0
BITMAP
6319CE
F7BDEE
F7BDEE
6319CE
000000
00000E
00000E
00000E
00000E
00000E
00000E
00000E
00000E
000000
0001C0
0001E0
0001E0
0001C0
000000
001800
003C00
003C00
001800
001800
003C00
003C00
001800
000000
001800
003C00
003C00
001800
ENDCHAR
STARTCHAR 0038
ENCODING 56
SWIDTH 652 0
DWIDTH 30 0
BBX 23 32 3 0
BITMAP
0319C0
07BDE0
07BDE0
0319C0
000000
60000E
F0000E
F0000E
60000E
60000E
F0000E
F0000E
60000E
000000
0319C0
07BDE0
07BDE0
0319C0
000000
60000E
F0000E
F0000E
60000E
60000E
F0000E
F0000E
60000E
000000
0319C0
07BDE0
07BDE0
0319C0
ENDCHAR
STARTCHAR 0039
ENCODING 57
SWIDTH 652 0
DWIDTH 30 0
BBX 23 32 3 0
BITMAP
0319C0
07BDE0
07BDE0
0319C0
000000
60000E
F0000E
F0000E
60000E
60000E
F0000E
F0000E
60000E
000000
0319CE
07BDEE
07BDEE
0319CE
000000
00000E
00000E
00000E
00000E
60000E
F0000E
F0000E
60000E
000000
0319C0
07BDE0
07BDE0
0319C0
ENDCHAR
STARTCHAR 003C
ENCODING 60
SWIDTH 434 0
DWIDTH 20 0
BBX 14 23 3 0
BITMAP
0038
0038
003C
0038
0000
0300
0780
0780
0300
6000
F000
F000
6000
0000
0300
0780
0780
0300
0000
0038
0038
003C
0038
ENDCHAR
STARTCHAR 003D
ENCODING 61
SWIDTH 630 0
DWIDTH 29 0
BBX 23 11 3 12
BITMAP
6339CC
F7BFDE
F7BFDE
6339CC
000000
000000
000000
6339CC
F7BFDE
F7BFDE
6339CC
ENDCHAR
STARTCHAR 003E
ENCODING 62
SWIDTH 434 0
DWIDTH 20 0
BBX 14 23 3 0
BITMAP
6000
F000
F000
6000
0000
0300
0780
0780
0300
0038
003C
003C
0038
0000
0300
0780
0780
0300
0000
6000
F000
F000
6000
ENDCHAR
STARTCHAR 003F
ENCODING 63
SWIDTH 652 0
DWIDTH 30 0
BBX 23 32 3 0
BITMAP
0319C0
07BDE0
07BDE0
0319C0
000000
60000E
F0000E
F0000E
60000E
00000E
00000E
00000E
00000E
000000
0001C0
0001E0
0001E0
0001C0
000000
001800
003C00
003C00
001800
000000
000000
000000
000000
000000
001800
003C00
003C00
001800
ENDCHAR
STARTCHAR 0040
ENCODING 64
SWIDTH 652 0
DWIDTH 30 0
BBX 23 32 3 0
BITMAP
0319C0
07BDE0
07BDE0
0319C0
000000
60000E
F0000E
F0000E
60000E
6019CE
F03DEE
F03DEE
6019CE
000000
60180E
F03C0E
F03C0E
60180E
000000
6019CE
F03DEE
F03DEE
6019CE
600000
F00000
F00000
600000
000000
0319CE
07BDEE
07BDEE
0319CE
ENDCHAR
STARTCHAR 0041
ENCODING 65
SWIDTH 652 0
DWIDTH 30 0
BBX 23 32 3 0
BITMAP
0739C0
07BDE0
07BDC0
0318C0
000004
F0000E
F0000E
F0000E
000000
60000C
F0000E
F0000E
70000E
000000
7339CE
F7BDEE
F7BDEE
6318CE
000000
70000E
F0001E
F0000E
200004
600004
F0000E
F0000E
70000E
000000
60000E
F0000E
F0000E
70000E
ENDCHAR
STARTCHAR 0042
ENCODING 66
SWIDTH 652 0
DWIDTH 30 0
BBX 23 32 3 0
BITMAP
7739C0
F7BDE0
F7BDC0
6318C0
000004
F0000E
F0000E
F0000E
000000
60000E
F0000E
F0000E
70000E
000000
7339C0
F7BDE0
F7BDE0
6318C0
000000
70000E
F0001E
F0000E
200004
200004
F0000E
F0000E
70000E
000000
6319C0
F7BDE0
F7BDE0
6339C0
ENDCHAR
STARTCHAR 0043
ENCODING 67
SWIDTH 652 0
DWIDTH 30 0
BBX 23 32 3 0
BITMAP
0739C0
07BDE0
07BDC0
0318C0
000004
F0000E
F0000E
70000E
000000
600000
F00000
F00000
700000
000000
700000
F00000
F00000
600000
000000
700000
F00000
F00000
200000
600004
F0000E
F0000E
70000E
000000
0319C0
07BDE0
07BDE0
0339C0
ENDCHAR
STARTCHAR 0044
ENCODING 68
SWIDTH 652 0
DWIDTH 30 0
BBX 23 32 3 0
BITMAP
6319C0
F7BDE0
F7BDE0
6339C0
000000
60000E
F0000E
F0000E
60000E
60000E
F0000E
F0000E
60000E
000000
60000E
F0000E
F0000E
60000E
000000
60000E
F0000E
F0000E
60000E
60000E
F0000E
F0000E
60000E
000000
6319C0
F7BDE0
F7BDE0
6319C0
ENDCHAR
STARTCHAR 0045
ENCODING 69
SWIDTH 652 0
DWIDTH 30 0
BBX 23 32 3 0
BITMAP
77B9CE
F7BDEE
F7BDCE
6318C4
000000
F00000
F00000
F00000
000000
600000
F00000
F00000
700000
000000
7339C0
F7BDE0
F7BDE0
6318C0
000000
700000
F00000
F00000
200000
200000
F00000
F00000
700000
000000
6319CE
F7BDEE
F7BDEE
6339CE
ENDCHAR
STARTCHAR 0046
ENCODING 70
SWIDTH 652 0
DWIDTH 30 0
BBX 23 32 3 0
BITMAP
7739CE
F7BDEE
F7BDCE
6318C4
200000
F00000
F00000
700000
000000
600000
F00000
F00000
700000
000000
7339C0
F7BDE0
F7BDE0
6318C0
000000
700000
F00000
F00000
200000
600000
F00000
F00000
700000
000000
600000
F00000
F00000
700000
ENDCHAR
STARTCHAR 0047
ENCODING 71
SWIDTH 652 0
DWIDTH 30 0
BBX 23 32 3 0
BITMAP
0319C0
07BDE0
07BDE0
0339C0
000000
60000E
F0000E
F0000E
60000E
600000
F00000
F00000
600000
000000
6019CE
F03DEE
F03DEE
6039CE
000000
60000E
F0000E
F0000E
60000E
60000E
F0000E
F0000E
60000E
000000
0319C0
07BDE0
07BDE0
0319C0
ENDCHAR
STARTCHAR 0048
ENCODING 72
SWIDTH 652 0
DWIDTH 30 0
BBX 23 32 3 0
BITMAP
70000E
F0000E
F0000E
600004
000000
F0000E
F0000E
F0000E
000000
60000E
F0000E
F0000E
70000E
000000
7339CE
F7BDEE
F7BDEE
6318CE
000000
70000E
F0000E
F0000E
200004
200004
F0000E
F0000E
70000E
000000
60000E
F0000E
F0000E
60000E
ENDCHAR
STARTCHAR 0049
ENCODING 73
SWIDTH 434 0
DWIDTH 20 0
BBX 14 32 3 0
BITMAP
6318
F7BC
F7BC
7318
0000
0300
0780
0780
0300
0300
0780
0780
0300
0000
0300
0780
0780
0300
0000
0300
0780
0780
0300
0300
0780
0780
0300
0000
6318
F7BC
F7BC
6318
ENDCHAR
STARTCHAR 004A
ENCODING 74
SWIDTH 652 0
DWIDTH 30 0
BBX 23 32 3 0
BITMAP
00000E
00000E
00000E
00000E
000000
00000E
00000E
00000E
00000E
00000E
00000E
00000E
00000E
000000
00000E
00000E
00000E
00000E
000000
60000E
F0000E
F0000E
60000E
60000E
F0000E
F0000E
60000E
000000
0319C0
07BDE0
07BDE0
0319C0
ENDCHAR
STARTCHAR 004B
ENCODING 75
SWIDTH 652 0
DWIDTH 30 0
BBX 23 32 3 0
BITMAP
60000E
F0000E
F0000E
60000E
000000
6001C0
F001E0
F001E0
6001C0
601800
F03C00
F03C00
601800
000000
630000
F78000
F78000
630000
000000
601800
F03C00
F03C00
601800
6001C0
F001E0
F001E0
6001C0
000000
60000E
F0000E
F0000E
60000E
ENDCHAR
STARTCHAR 004C
ENCODING 76
SWIDTH 652 0
DWIDTH 30 0
BBX 23 32 3 0
BITMAP
600000
F00000
F00000
600000
000000
600000
F00000
F00000
600000
600000
F00000
F00000
600000
000000
600000
F00000
F00000
600000
000000
600000
F00000
F00000
600000
600000
F00000
F00000
600000
000000
6319CE
F7BDEE
F7BDEE
6319CE
ENDCHAR
STARTCHAR 004D
ENCODING 77
SWIDTH 652 0
DWIDTH 30 0
BBX 23 32 3 0
BITMAP
60000E
F0000E
F0000E
60000E
000000
6301CE
F781EE
F781EE
6301CE
60180E
F03C0E
F03C0E
60180E
000000
60180E
F03C0E
F03C0E
60180E
000000
60000E
F0000E
F0000E
60000E
60000E
F0000E
F0000E
60000E
000000
60000E
F0000E
F0000E
60000E
ENDCHAR
STARTCHAR 004E
ENCODING 78
SWIDTH 652 0
DWIDTH 30 0
BBX 23 32 3 0
BITMAP
60000E
F0000E
F0000E
60000E
000000
63000E
F7800E
F7800E
63000E
60180E
F03C0E
F03C0E
60180E
000000
6001CE
F001EE
F001EE
6001CE
000000
60000E
F0000E
F0000E
60000E
60000E
F0000E
F0000E
60000E
000000
60000E
F0000E
F0000E
60000E
ENDCHAR
STARTCHAR 004F
ENCODING 79
SWIDTH 652 0
DWIDTH 30 0
BBX 23 32 3 0
BITMAP
0319C0
07BDE0
07BDE0
0319C0
000000
60000E
F0000E
F0000E
60000E
60000E
F0000E
F0000E
60000E
000000
60000E
F0000E
F0000E
60000E
000000
60000E
F0000E
F0000E
60000E
60000E
F0000E
F0000E
60000E
000000
0319C0
07BDE0
07BDE0
0319C0
ENDCHAR
STARTCHAR 0050
ENCODING 80
SWIDTH 652 0
DWIDTH 30 0
BBX 23 32 3 0
BITMAP
6319C0
F7BDE0
F7BDE0
6319C0
000000
60000E
F0000E
F0000E
60000E
60000E
F0000E
F0000E
60000E
000000
6319C0
F7BDE0
F7BDE0
6319C0
000000
600000
F00000
F00000
600000
600000
F00000
F00000
600000
000000
600000
F00000
F00000
600000
ENDCHAR
STARTCHAR 0051
ENCODING 81
SWIDTH 652 0
DWIDTH 30 0
BBX 23 32 3 0
BITMAP
0319C0
07BDE0
07BDE0
0319C0
000000
60000E
F0000E
F0000E
60000E
60000E
F0000E
F0000E
60000E
000000
60000E
F0000E
F0000E
60000E
000000
60180E
F03C0E
F03C0E
60180E
6001C0
F001E0
F001E0
6001C0
000000
03180E
07BC0E
07BC0E
03180E
ENDCHAR
STARTCHAR 0052
ENCODING 82
SWIDTH 652 0
DWIDTH 30 0
BBX 23 32 3 0
BITMAP
6319C0
F7BDE0
F7BDE0
6319C0
000000
60000E
F0000E
F0000E
60000E
60000E
F0000E
F0000E
60000E
000000
6319C0
F7BDE0
F7BDE0
6319C0
000000
601800
F03C00
F03C00
601800
6001C0
F001E0
F001E0
6001C0
000000
60000E
F0000E
F0000E
60000E
ENDCHAR
STARTCHAR 0053
ENCODING 83
SWIDTH 652 0
DWIDTH 30 0
BBX 23 32 3 0
BITMAP
0319C0
07BDE0
07BDE0
0319C0
000000
60000E
F0000E
F0000E
60000E
600000
F00000
F00000
600000
000000
0319C0
07BDE0
07BDE0
0319C0
000000
00000E
00000E
00000E
00000E
60000E
F0000E
F0000E
60000E
000000
0319C0
07BDE0
07BDE0
0319C0
ENDCHAR
STARTCHAR 0054
ENCODING 84
SWIDTH 652 0
DWIDTH 30 0
BBX 23 32 3 0
BITMAP
6319CE
F7BDEE
F7BDEE
6319CE
000000
001800
003C00
003C00
001800
001800
003C00
003C00
001800
000000
001800
003C00
003C00
001800
000000
001800
003C00
003C00
001800
001800
003C00
003C00
001800
000000
001800
003C00
003C00
001800
ENDCHAR
STARTCHAR 0055
ENCODING 85
SWIDTH 652 0
DWIDTH 30 0
BBX 23 32 3 0
BITMAP
60000E
F0000E
F0000E
60000E
000000
60000E
F0000E
F0000E
60000E
60000E
F0000E
F0000E
60000E
000000
60000E
F0000E
F0000E
60000E
000000
60000E
F0000E
F0000E
60000E
60000E
F0000E
F0000E
60000E
000000
0319C0
07BDE0
07BDE0
0319C0
ENDCHAR
STARTCHAR 0056
ENCODING 86
SWIDTH 652 0
DWIDTH 30 0
BBX 23 32 3 0
BITMAP
60000E
F0000E
F0000E
60000E
000000
60000E
F0000E
F0000E
60000E
60000E
F0000E
F0000E
60000E
000000
60000E
F0000E
F0000E
60000E
000000
60000E
F0000E
F0000E
60000E
0301C0
0781E0
0781E0
0301C0
000000
001800
003C00
003C00
001800
ENDCHAR
STARTCHAR 0057
ENCODING 87
SWIDTH 652 0
DWIDTH 30 0
BBX 23 32 3 0
BITMAP
60000E
F0000E
F0000E
60000E
000000
60000E
F0000E
F0000E
60000E
60000E
F0000E
F0000E
60000E
000000
60180E
F03C0E
F03C0E
60180E
000000
60180E
F03C0E
F03C0E
60180E
6301CE
F781EE
F781EE
6301CE
000000
60000E
F0000E
F0000E
60000E
ENDCHAR
STARTCHAR 0058
ENCODING 88
SWIDTH 652 0
DWIDTH 30 0
BBX 23 32 3 0
BITMAP
60000E
F0000E
F0000E
60000E
000000
60000E
F0000E
F0000E
60000E
0301C0
0781E0
0781E0
0301C0
000000
001800
003C00
003C00
001800
000000
0301C0
0781E0
0781E0
0301C0
60000E
F0000E
F0000E
60000E
000000
60000E
F0000E
F0000E
60000E
ENDCHAR
STARTCHAR 0059
ENCODING 89
SWIDTH 652 0
DWIDTH 30 0
BBX 23 32 3 0
BITMAP
60000E
F0000E
F0000E
60000E
000000
60000E
F0000E
F0000E
60000E
60000E
F0000E
F0000E
60000E
000000
0301C0
0781E0
0781E0
0301C0
000000
001800
003C00
003C00
001800
001800
003C00
003C00
001800
000000
001800
003C00
003C00
001800
ENDCHAR
STARTCHAR 005A
ENCODING 90
SWIDTH 652 0
DWIDTH 30 0
BBX 23 32 3 0
BITMAP
6319CE
F7BDEE
F7BDEE
6319CE
000000
00000E
00000E
00000E
00000E
0001C0
0001E0
0001E0
0001C0
000000
001800
003C00
003C00
001800
000000
030000
078000
078000
030000
600000
F00000
F00000
600000
000000
6319CE
F7BDEE
F7BDEE
6319CE
ENDCHAR
STARTCHAR 0061
ENCODING 97
SWIDTH 652 0
DWIDTH 30 0
BBX 23 32 3 0
BITMAP
0739C0
07BDE0
07BDC0
0318C0
000004
F0000E
F0000E
F0000E
000000
60000C
F0000E
F0000E
70000E
000000
7339CE
F7BDEE
F7BDEE
6318CE
000000
70000E
F0001E
F0000E
200004
600004
F0000E
F0000E
70000E
000000
60000E
F0000E
F0000E
70000E
ENDCHAR
STARTCHAR 0062
ENCODING 98
SWIDTH 652 0
DWIDTH 30 0
BBX 23 32 3 0
BITMAP
7739C0
F7BDE0
F7BDC0
6318C0
000004
F0000E
F0000E
F0000E
000000
60000E
F0000E
F0000E
70000E
000000
7339C0
F7BDE0
F7BDE0
6318C0
000000
70000E
F0001E
F0000E
200004
200004
F0000E
F0000E
70000E
000000
6319C0
F7BDE0
F7BDE0
6339C0
ENDCHAR
STARTCHAR 0063
ENCODING 99
SWIDTH 652 0
DWIDTH 30 0
BBX 23 32 3 0
BITMAP
0739C0
07BDE0
07BDC0
0318C0
000004
F0000E
F0000E
70000E
000000
600000
F00000
F00000
700000
000000
700000
F00000
F00000
600000
000000
700000
F00000
F00000
200000
600004
F0000E
F0000E
70000E
000000
0319C0
07BDE0
07BDE0
0339C0
ENDCHAR
STARTCHAR 0064
ENCODING 100
SWIDTH 652 0
DWIDTH 30 0
BBX 23 32 3 0
BITMAP
6319C0
F7BDE0
F7BDE0
6339C0
000000
60000E
F0000E
F0000E
60000E
60000E
F0000E
F0000E
60000E
000000
60000E
F0000E
F0000E
60000E
000000
60000E
F0000E
F0000E
60000E
60000E
F0000E
F0000E
60000E
000000
6319C0
F7BDE0
F7BDE0
6319C0
ENDCHAR
STARTCHAR 0065
ENCODING 101
SWIDTH 652 0
DWIDTH 30 0
BBX 23 32 3 0
BITMAP
77B9CE
F7BDEE
F7BDCE
6318C4
000000
F00000
F00000
F00000
000000
600000
F00000
F00000
700000
000000
7339C0
F7BDE0
F7BDE0
6318C0
000000
700000
F00000
F00000
200000
200000
F00000
F00000
700000
000000
6319CE
F7BDEE
F7BDEE
6339CE
ENDCHAR
STARTCHAR 0066
ENCODING 102
SWIDTH 652 0
DWIDTH 30 0
BBX 23 32 3 0
BITMAP
7739CE
F7BDEE
F7BDCE
6318C4
000000
F00000
F00000
700000
000000
600000
F00000
F00000
700000
000000
7339C0
F7BDE0
F7BDE0
6318C0
000000
700000
F00000
F00000
200000
600000
F00000
F00000
700000
000000
600000
F00000
F00000
700000
ENDCHAR
STARTCHAR 0067
ENCODING 103
SWIDTH 652 0
DWIDTH 30 0
BBX 23 32 3 0
BITMAP
0319C0
07BDE0
07BDE0
0339C0
000000
60000E
F0000E
F0000E
60000E
600000
F00000
F00000
600000
000000
6019CE
F03DEE
F03DEE
6039CE
000000
60000E
F0000E
F0000E
60000E
60000E
F0000E
F0000E
60000E
000000
0319C0
07BDE0
07BDE0
0319C0
ENDCHAR
STARTCHAR 0068
ENCODING 104
SWIDTH 652 0
DWIDTH 30 0
BBX 23 32 3 0
BITMAP
70000E
F0000E
F0000E
600004
000000
F0000E
F0000E
F0000E
000000
60000E
F0000E
F0000E
70000E
000000
7339CE
F7BDEE
F7BDEE
6318CE
000000
70000E
F0000E
F0000E
200004
200004
F0000E
F0000E
70000E
000000
60000E
F0000E
F0000E
60000E
ENDCHAR
STARTCHAR 0069
ENCODING 105
SWIDTH 434 0
DWIDTH 20 0
BBX 14 32 3 0
BITMAP
6318
F7BC
F7BC
7318
0000
0300
0780
0780
0300
0300
0780
0780
0300
0000
0300
0780
0780
0300
0000
0300
0780
0780
0300
0300
0780
0780
0300
0000
6318
F7BC
F7BC
6318
ENDCHAR
STARTCHAR 006A
ENCODING 106
SWIDTH 652 0
DWIDTH 30 0
BBX 23 32 3 0
BITMAP
00000E
00000E
00000E
00000E
000000
00000E
00000E
00000E
00000E
00000E
00000E
00000E
00000E
000000
00000E
00000E
00000E
00000E
000000
60000E
F0000E
F0000E
60000E
60000E
F0000E
F0000E
60000E
000000
0319C0
07BDE0
07BDE0
0319C0
ENDCHAR
STARTCHAR 006B
ENCODING 107
SWIDTH 652 0
DWIDTH 30 0
BBX 23 32 3 0
BITMAP
60000E
F0000E
F0000E
60000E
000000
6001C0
F001E0
F001E0
6001C0
601800
F03C00
F03C00
601800
000000
630000
F78000
F78000
630000
000000
601800
F03C00
F03C00
601800
6001C0
F001E0
F001E0
6001C0
000000
60000E
F0000E
F0000E
60000E
ENDCHAR
STARTCHAR 006C
ENCODING 108
SWIDTH 652 0
DWIDTH 30 0
BBX 23 32 3 0
BITMAP
600000
F00000
F00000
600000
000000
600000
F00000
F00000
600000
600000
F00000
F00000
600000
000000
600000
F00000
F00000
600000
000000
600000
F00000
F00000
600000
600000
F00000
F00000
600000
000000
6319CE
F7BDEE
F7BDEE
6319CE
ENDCHAR
STARTCHAR 006D
ENCODING 109
SWIDTH 652 0
DWIDTH 30 0
BBX 23 32 3 0
BITMAP
60000E
F0000E
F0000E
60000E
000000
6301CE
F781EE
F781EE
6301CE
60180E
F03C0E
F03C0E
60180E
000000
60180E
F03C0E
F03C0E
60180E
000000
60000E
F0000E
F0000E
60000E
60000E
F0000E
F0000E
60000E
000000
60000E
F0000E
F0000E
60000E
ENDCHAR
STARTCHAR 006E
ENCODING 110
SWIDTH 652 0
DWIDTH 30 0
BBX 23 32 3 0
BITMAP
60000E
F0000E
F0000E
60000E
000000
63000E
F7800E
F7800E
63000E
60180E
F03C0E
F03C0E
60180E
000000
6001CE
F001EE
F001EE
6001CE
000000
60000E
F0000E
F0000E
60000E
60000E
F0000E
F0000E
60000E
000000
60000E
F0000E
F0000E
60000E
ENDCHAR
STARTCHAR 006F
ENCODING 111
SWIDTH 652 0
DWIDTH 30 0
BBX 23 32 3 0
BITMAP
0319C0
07BDE0
07BDE0
0319C0
000000
60000E
F0000E
F0000E
60000E
60000E
F0000E
F0000E
60000E
000000
60000E
F0000E
F0000E
60000E
000000
60000E
F0000E
F0000E
60000E
60000E
F0000E
F0000E
60000E
000000
0319C0
07BDE0
07BDE0
0319C0
ENDCHAR
STARTCHAR 0070
ENCODING 112
SWIDTH 652 0
DWIDTH 30 0
BBX 23 32 3 0
BITMAP
6319C0
F7BDE0
F7BDE0
6319C0
000000
60000E
F0000E
F0000E
60000E
60000E
F0000E
F0000E
60000E
000000
6319C0
F7BDE0
F7BDE0
6319C0
000000
600000
F00000
F00000
600000
600000
F00000
F00000
600000
000000
600000
F00000
F00000
600000
ENDCHAR
STARTCHAR 0071
ENCODING 113
SWIDTH 652 0
DWIDTH 30 0
BBX 23 32 3 0
BITMAP
0319C0
07BDE0
07BDE0
0319C0
000000
60000E
F0000E
F0000E
60000E
60000E
F0000E
F0000E
60000E
000000
60000E
F0000E
F0000E
60000E
000000
60180E
F03C0E
F03C0E
60180E
6001C0
F001E0
F001E0
6001C0
000000
03180E
07BC0E
07BC0E
03180E
ENDCHAR
STARTCHAR 0072
ENCODING 114
SWIDTH 652 0
DWIDTH 30 0
BBX 23 32 3 0
BITMAP
6319C0
F7BDE0
F7BDE0
6319C0
000000
60000E
F0000E
F0000E
60000E
60000E
F0000E
F0000E
60000E
000000
6319C0
F7BDE0
F7BDE0
6319C0
000000
601800
F03C00
F03C00
601800
6001C0
F001E0
F001E0
6001C0
000000
60000E
F0000E
F0000E
60000E
ENDCHAR
STARTCHAR 0073
ENCODING 115
SWIDTH 652 0
DWIDTH 30 0
BBX 23 32 3 0
BITMAP
0319C0
07BDE0
07BDE0
0319C0
000000
60000E
F0000E
F0000E
60000E
600000
F00000
F00000
600000
000000
0319C0
07BDE0
07BDE0
0319C0
000000
00000E
00000E
00000E
00000E
60000E
F0000E
F0000E
60000E
000000
0319C0
07BDE0
07BDE0
0319C0
ENDCHAR
STARTCHAR 0074
ENCODING 116
SWIDTH 652 0
DWIDTH 30 0
BBX 23 32 3 0
BITMAP
6319CE
F7BDEE
F7BDEE
6319CE
000000
001800
003C00
003C00
001800
001800
003C00
003C00
001800
000000
001800
003C00
003C00
001800
000000
001800
003C00
003C00
001800
001800
003C00
003C00
001800
000000
001800
003C00
003C00
001800
ENDCHAR
STARTCHAR 0075
ENCODING 117
SWIDTH 652 0
DWIDTH 30 0
BBX 23 32 3 0
BITMAP
60000E
F0000E
F0000E
60000E
000000
60000E
F0000E
F0000E
60000E
60000E
F0000E
F0000E
60000E
000000
60000E
F0000E
F0000E
60000E
000000
60000E
F0000E
F0000E
60000E
60000E
F0000E
F0000E
60000E
000000
0319C0
07BDE0
07BDE0
0319C0
ENDCHAR
STARTCHAR 0076
ENCODING 118
SWIDTH 652 0
DWIDTH 30 0
BBX 23 32 3 0
BITMAP
60000E
F0000E
F0000E
60000E
000000
60000E
F0000E
F0000E
60000E
60000E
F0000E
F0000E
60000E
000000
60000E
F0000E
F0000E
60000E
000000
60000E
F0000E
F0000E
60000E
0301C0
0781E0
0781E0
0301C0
000000
001800
003C00
003C00
001800
ENDCHAR
STARTCHAR 0077
ENCODING 119
SWIDTH 652 0
DWIDTH 30 0
BBX 23 32 3 0
BITMAP
60000E
F0000E
F0000E
60000E
000000
60000E
F0000E
F0000E
60000E
60000E
F0000E
F0000E
60000E
000000
60180E
F03C0E
F03C0E
60180E
000000
60180E
F03C0E
F03C0E
60180E
6301CE
F781EE
F781EE
6301CE
000000
60000E
F0000E
F0000E
60000E
ENDCHAR
STARTCHAR 0078
ENCODING 120
SWIDTH 652 0
DWIDTH 30 0
BBX 23 32 3 0
BITMAP
60000E
F0000E
F0000E
60000E
000000
60000E
F0000E
F0000E
60000E
0301C0
0781E0
0781E0
0301C0
000000
001800
003C00
003C00
001800
000000
0301C0
0781E0
0781E0
0301C0
60000E
F0000E
F0000E
60000E
000000
60000E
F0000E
F0000E
60000E
ENDCHAR
STARTCHAR 0079
ENCODING 121
SWIDTH 652 0
DWIDTH 30 0
BBX 23 32 3 0
BITMAP
60000E
F0000E
F0000E
60000E
000000
60000E
F0000E
F0000E
60000E
60000E
F0000E
F0000E
60000E
000000
0301C0
0781E0
0781E0
0301C0
000000
001800
003C00
003C00
001800
001800
003C00
003C00
001800
000000
001800
003C00
003C00
001800
ENDCHAR
STARTCHAR 007A
ENCODING 122
SWIDTH 652 0
DWIDTH 30 0
BBX 23 32 3 0
BITMAP
6319CE
F7BDEE
F7BDEE
6319CE
000000
00000E
00000E
00000E
00000E
0001C0
0001E0
0001E0
0001C0
000000
001800
003C00
003C00
001800
000000
030000
078000
078000
030000
600000
F00000
F00000
600000
000000
6319CE
F7BDEE
F7BDEE
6319CE
ENDCHAR
STARTCHAR 00A0
ENCODING 160
SWIDTH 434 0
DWIDTH 20 0
BBX 0 0 0 0
BITMAP
ENDCHAR
STARTCHAR 00AD
ENCODING 173
SWIDTH 0 0
DWIDTH 0 0
BBX 0 0 0 0
BITMAP
ENDCHAR
STARTCHAR 00C0
ENCODING 192
SWIDTH 652 0
DWIDTH 30 0
BBX 23 32 3 0
BITMAP
0739C0
07BDE0
07BDC0
0318C0
000004
F0000E
F0000E
F0000E
000000
60000C
F0000E
F0000E
70000E
000000
7339CE
F7BDEE
F7BDEE
6318CE
000000
70000E
F0001E
F0000E
200004
600004
F0000E
F0000E
70000E
000000
60000E
F0000E
F0000E
70000E
ENDCHAR
STARTCHAR 00C1
ENCODING 193
SWIDTH 652 0
DWIDTH 30 0
BBX 23 32 3 0
BITMAP
0739C0
07BDE0
07BDC0
0318C0
000004
F0000E
F0000E
F0000E
000000
60000C
F0000E
F0000E
70000E
000000
7339CE
F7BDEE
F7BDEE
6318CE
000000
70000E
F0001E
F0000E
200004
600004
F0000E
F0000E
70000E
000000
60000E
F0000E
F0000E
70000E
ENDCHAR
STARTCHAR 00C2
ENCODING 194
SWIDTH 652 0
DWIDTH 30 0
BBX 23 32 3 0
BITMAP
0739C0
07BDE0
07BDC0
0318C0
000004
F0000E
F0000E
F0000E
000000
60000C
F0000E
F0000E
70000E
000000
7339CE
F7BDEE
F7BDEE
6318CE
000000
70000E
F0001E
F0000E
200004
600004
F0000E
F0000E
70000E
000000
60000E
F0000E
F0000E
70000E
ENDCHAR
STARTCHAR 00C3
ENCODING 195
SWIDTH 652 0
DWIDTH 30 0
BBX 23 32 3 0
BITMAP
0739C0
07BDE0
07BDC0
0318C0
000004
F0000E
F0000E
F0000E
000000
60000C
F0000E
F0000E
70000E
000000
7339CE
F7BDEE
F7BDEE
6318CE
000000
70000E
F0001E
F0000E
200004
600004
F0000E
F0000E
70000E
000000
60000E
F0000E
F0000E
70000E
ENDCHAR
STARTCHAR 00C4
ENCODING 196
SWIDTH 652 0
DWIDTH 30 0
BBX 23 32 3 0
BITMAP
0739C0
07BDE0
07BDC0
0318C0
000004
F0000E
F0000E
F0000E
000000
60000C
F0000E
F0000E
70000E
000000
7339CE
F7BDEE
F7BDEE
6318CE
000000
70000E
F0001E
F0000E
200004
600004
F0000E
F0000E
70000E
000000
60000E
F0000E
F0000E
70000E
ENDCHAR
STARTCHAR 00C8
ENCODING 200
SWIDTH 652 0
DWIDTH 30 0
BBX 23 32 3 0
BITMAP
77B9CE
F7BDEE
F7BDCE
6318C4
000000
F00000
F00000
F00000
000000
600000
F00000
F00000
700000
000000
7339C0
F7BDE0
F7BDE0
6318C0
000000
700000
F00000
F00000
200000
200000
F00000
F00000
700000
000000
6319CE
F7BDEE
F7BDEE
6339CE
ENDCHAR
STARTCHAR 00C9
ENCODING 201
SWIDTH 652 0
DWIDTH 30 0
BBX 23 32 3 0
BITMAP
77B9CE
F7BDEE
F7BDCE
6318C4
000000
F00000
F00000
F00000
000000
600000
F00000
F00000
700000
000000
7339C0
F7BDE0
F7BDE0
6318C0
000000
700000
F00000
F00000
200000
200000
F00000
F00000
700000
000000
6319CE
F7BDEE
F7BDEE
6339CE
ENDCHAR
STARTCHAR 00CA
ENCODING 202
SWIDTH 652 0
DWIDTH 30 0
BBX 23 32 3 0
BITMAP
77B9CE
F7BDEE
F7BDCE
6318C4
000000
F00000
F00000
F00000
000000
600000
F00000
F00000
700000
000000
7339C0
F7BDE0
F7BDE0
6318C0
000000
700000
F00000
F00000
200000
200000
F00000
F00000
700000
000000
6319CE
F7BDEE
F7BDEE
6339CE
ENDCHAR
STARTCHAR 00CC
ENCODING 204
SWIDTH 434 0
DWIDTH 20 0
BBX 14 32 3 0
BITMAP
6318
F7BC
F7BC
7318
0000
0300
0780
0780
0300
0300
0780
0780
0300
0000
0300
0780
0780
0300
0000
0300
0780
0780
0300
0300
0780
0780
0300
0000
6318
F7BC
F7BC
6318
ENDCHAR
STARTCHAR 00CD
ENCODING 205
SWIDTH 434 0
DWIDTH 20 0
BBX 14 32 3 0
BITMAP
6318
F7BC
F7BC
7318
0000
0300
0780
0780
0300
0300
0780
0780
0300
0000
0300
0780
0780
0300
0000
0300
0780
0780
0300
0300
0780
0780
0300
0000
6318
F7BC
F7BC
6318
ENDCHAR
STARTCHAR 00CE
ENCODING 206
SWIDTH 434 0
DWIDTH 20 0
BBX 14 32 3 0
BITMAP
6318
F7BC
F7BC
7318
0000
0300
0780
0780
0300
0300
0780
0780
0300
0000
0300
0780
0780
0300
0000
0300
0780
0780
0300
0300
0780
0780
0300
0000
6318
F7BC
F7BC
6318
ENDCHAR
STARTCHAR 00D2
ENCODING 210
SWIDTH 652 0
DWIDTH 30 0
BBX 23 32 3 0
BITMAP
0319C0
07BDE0
07BDE0
0319C0
000000
60000E
F0000E
F0000E
60000E
60000E
F0000E
F0000E
60000E
000000
60000E
F0000E
F0000E
60000E
000000
60000E
F0000E
F0000E
60000E
60000E
F0000E
F0000E
60000E
000000
0319C0
07BDE0
07BDE0
0319C0
ENDCHAR
STARTCHAR 00D3
ENCODING 211
SWIDTH 652 0
DWIDTH 30 0
BBX 23 32 3 0
BITMAP
0319C0
07BDE0
07BDE0
0319C0
000000
60000E
F0000E
F0000E
60000E
60000E
F0000E
F0000E
60000E
000000
60000E
F0000E
F0000E
60000E
000000
60000E
F0000E
F0000E
60000E
60000E
F0000E
F0000E
60000E
000000
0319C0
07BDE0
07BDE0
0319C0
ENDCHAR
STARTCHAR 00D4
ENCODING 212
SWIDTH 652 0
DWIDTH 30 0
BBX 23 32 3 0
BITMAP
0319C0
07BDE0
07BDE0
0319C0
000000
60000E
F0000E
F0000E
60000E
60000E
F0000E
F0000E
60000E
000000
60000E
F0000E
F0000E
60000E
000000
60000E
F0000E
F0000E
60000E
60000E
F0000E
F0000E
60000E
000000
0319C0
07BDE0
07BDE0
0319C0
ENDCHAR
STARTCHAR 00D5
ENCODING 213
SWIDTH 652 0
DWIDTH 30 0
BBX 23 32 3 0
BITMAP
0319C0
07BDE0
07BDE0
0319C0
000000
60000E
F0000E
F0000E
60000E
60000E
F0000E
F0000E
60000E
000000
60000E
F0000E
F0000E
60000E
000000
60000E
F0000E
F0000E
60000E
60000E
F0000E
F0000E
60000E
000000
0319C0
07BDE0
07BDE0
0319C0
ENDCHAR
STARTCHAR 00D6
ENCODING 214
SWIDTH 652 0
DWIDTH 30 0
BBX 23 32 3 0
BITMAP
0319C0
07BDE0
07BDE0
0319C0
000000
60000E
F0000E
F0000E
60000E
60000E
F0000E
F0000E
60000E
000000
60000E
F0000E
F0000E
60000E
000000
60000E
F0000E
F0000E
60000E
60000E
F0000E
F0000E
60000E
000000
0319C0
07BDE0
07BDE0
0319C0
ENDCHAR
STARTCHAR 00D9
ENCODING 217
SWIDTH 652 0
DWIDTH 30 0
BBX 23 32 3 0
BITMAP
60000E
F0000E
F0000E
60000E
000000
60000E
F0000E
F0000E
60000E
60000E
F0000E
F0000E
60000E
000000
60000E
F0000E
F0000E
60000E
000000
60000E
F0000E
F0000E
60000E
60000E
F0000E
F0000E
60000E
000000
0319C0
07BDE0
07BDE0
0319C0
ENDCHAR
STARTCHAR 00DA
ENCODING 218
SWIDTH 652 0
DWIDTH 30 0
BBX 23 32 3 0
BITMAP
60000E
F0000E
F0000E
60000E
000000
60000E
F0000E
F0000E
60000E
60000E
F0000E
F0000E
60000E
000000
60000E
F0000E
F0000E
60000E
000000
60000E
F0000E
F0000E
60000E
60000E
F0000E
F0000E
60000E
000000
0319C0
07BDE0
07BDE0
0319C0
ENDCHAR
STARTCHAR 00DB
ENCODING 219
SWIDTH 652 0
DWIDTH 30 0
BBX 23 32 3 0
BITMAP
60000E
F0000E
F0000E
60000E
000000
60000E
F0000E
F0000E
60000E
60000E
F0000E
F0000E
60000E
000000
60000E
F0000E
F0000E
60000E
000000
60000E
F0000E
F0000E
60000E
60000E
F0000E
F0000E
60000E
000000
0319C0
07BDE0
07BDE0
0319C0
ENDCHAR
STARTCHAR 00E0
ENCODING 224
SWIDTH 652 0
DWIDTH 30 0
BBX 23 32 3 0
BITMAP
0739C0
07BDE0
07BDC0
0318C0
000004
F0000E
F0000E
F0000E
000000
60000C
F0000E
F0000E
70000E
000000
7339CE
F7BDEE
F7BDEE
6318CE
000000
70000E
F0001E
F0000E
200004
600004
F0000E
F0000E
70000E
000000
60000E
F0000E
F0000E
70000E
ENDCHAR
STARTCHAR 00E1
ENCODING 225
SWIDTH 652 0
DWIDTH 30 0
BBX 23 32 3 0
BITMAP
0739C0
07BDE0
07BDC0
0318C0
000004
F0000E
F0000E
F0000E
000000
60000C
F0000E
F0000E
70000E
000000
7339CE
F7BDEE
F7BDEE
6318CE
000000
70000E
F0001E
F0000E
200004
600004
F0000E
F0000E
70000E
000000
60000E
F0000E
F0000E
70000E
ENDCHAR
STARTCHAR 00E2
ENCODING 226
SWIDTH 652 0
DWIDTH 30 0
BBX 23 32 3 0
BITMAP
0739C0
07BDE0
07BDC0
0318C0
000004
F0000E
F0000E
F0000E
000000
60000C
F0000E
F0000E
70000E
000000
7339CE
F7BDEE
F7BDEE
6318CE
000000
70000E
F0001E
F0000E
200004
600004
F0000E
F0000E
70000E
000000
60000E
F0000E
F0000E
70000E
ENDCHAR
STARTCHAR 00E3
ENCODING 227
SWIDTH 652 0
DWIDTH 30 0
BBX 23 32 3 0
BITMAP
0739C0
07BDE0
07BDC0
0318C0
000004
F0000E
F0000E
F0000E
000000
60000C
F0000E
F0000E
70000E
000000
7339CE
F7BDEE
F7BDEE
6318CE
000000
70000E
F0001E
F0000E
200004
600004
F0000E
F0000E
70000E
000000
60000E
F0000E
F0000E
70000E
ENDCHAR
STARTCHAR 00E4
ENCODING 228
SWIDTH 652 0
DWIDTH 30 0
BBX 23 32 3 0
BITMAP
0739C0
07BDE0
07BDC0
0318C0
000004
F0000E
F0000E
F0000E
000000
60000C
F0000E
F0000E
70000E
000000
7339CE
F7BDEE
F7BDEE
6318CE
000000
70000E
F0001E
F0000E
200004
600004
F0000E
F0000E
70000E
000000
60000E
F0000E
F0000E
70000E
ENDCHAR
STARTCHAR 00E8
ENCODING 232
SWIDTH 652 0
DWIDTH 30 0
BBX 23 32 3 0
BITMAP
77B9CE
F7BDEE
F7BDCE
6318C4
000000
F00000
F00000
F00000
000000
600000
F00000
F00000
700000
000000
7339C0
F7BDE0
F7BDE0
6318C0
000000
700000
F00000
F00000
200000
200000
F00000
F00000
700000
000000
6319CE
F7BDEE
F7BDEE
6339CE
ENDCHAR
STARTCHAR 00E9
ENCODING 233
SWIDTH 652 0
DWIDTH 30 0
BBX 23 32 3 0
BITMAP
77B9CE
F7BDEE
F7BDCE
6318C4
000000
F00000
F00000
F00000
000000
600000
F00000
F00000
700000
000000
7339C0
F7BDE0
F7BDE0
6318C0
000000
700000
F00000
F00000
200000
200000
F00000
F00000
700000
000000
6319CE
F7BDEE
F7BDEE
6339CE
ENDCHAR
STARTCHAR 00EA
ENCODING 234
SWIDTH 652 0
DWIDTH 30 0
BBX 23 32 3 0
BITMAP
77B9CE
F7BDEE
F7BDCE
6318C4
000000
F00000
F00000
F00000
000000
600000
F00000
F00000
700000
000000
7339C0
F7BDE0
F7BDE0
6318C0
000000
700000
F00000
F00000
200000
200000
F00000
F00000
700000
000000
6319CE
F7BDEE
F7BDEE
6339CE
ENDCHAR
STARTCHAR 00EC
ENCODING 236
SWIDTH 434 0
DWIDTH 20 0
BBX 14 32 3 0
BITMAP
6318
F7BC
F7BC
7318
0000
0300
0780
0780
0300
0300
0780
0780
0300
0000
0300
0780
0780
0300
0000
0300
0780
0780
0300
0300
0780
0780
0300
0000
6318
F7BC
F7BC
6318
ENDCHAR
STARTCHAR 00ED
ENCODING 237
SWIDTH 434 0
DWIDTH 20 0
BBX 14 32 3 0
BITMAP
6318
F7BC
F7BC
7318
0000
0300
0780
0780
0300
0300
0780
0780
0300
0000
0300
0780
0780
0300
0000
0300
0780
0780
0300
0300
0780
0780
0300
0000
6318
F7BC
F7BC
6318
ENDCHAR
STARTCHAR 00EE
ENCODING 238
SWIDTH 434 0
DWIDTH 20 0
BBX 14 32 3 0
BITMAP
6318
F7BC
F7BC
7318
0000
0300
0780
0780
0300
0300
0780
0780
0300
0000
0300
0780
0780
0300
0000
0300
0780
0780
0300
0300
0780
0780
0300
0000
6318
F7BC
F7BC
6318
ENDCHAR
STARTCHAR 00F2
ENCODING 242
SWIDTH 652 0
DWIDTH 30 0
BBX 23 32 3 0
BITMAP
0319C0
07BDE0
07BDE0
0319C0
000000
60000E
F0000E
F0000E
60000E
60000E
F0000E
F0000E
60000E
000000
60000E
F0000E
F0000E
60000E
000000
60000E
F0000E
F0000E
60000E
60000E
F0000E
F0000E
60000E
000000
0319C0
07BDE0
07BDE0
0319C0
ENDCHAR
STARTCHAR 00F3
ENCODING 243
SWIDTH 652 0
DWIDTH 30 0
BBX 23 32 3 0
BITMAP
0319C0
07BDE0
07BDE0
0319C0
000000
60000E
F0000E
F0000E
60000E
60000E
F0000E
F0000E
60000E
000000
60000E
F0000E
F0000E
60000E
000000
60000E
F0000E
F0000E
60000E
60000E
F0000E
F0000E
60000E
000000
0319C0
07BDE0
07BDE0
0319C0
ENDCHAR
STARTCHAR 00F4
ENCODING 244
SWIDTH 652 0
DWIDTH 30 0
BBX 23 32 3 0
BITMAP
0319C0
07BDE0
07BDE0
0319C0
000000
60000E
F0000E
F0000E
60000E
60000E
F0000E
F0000E
60000E
000000
60000E
F0000E
F0000E
60000E
000000
60000E
F0000E
F0000E
60000E
60000E
F0000E
F0000E
60000E
000000
0319C0
07BDE0
07BDE0
0319C0
ENDCHAR
STARTCHAR 00F5
ENCODING 245
SWIDTH 652 0
DWIDTH 30 0
BBX 23 32 3 0
BITMAP
0319C0
07BDE0
07BDE0
0319C0
000000
60000E
F0000E
F0000E
60000E
60000E
F0000E
F0000E
60000E
000000
60000E
F0000E
F0000E
60000E
000000
60000E
F0000E
F0000E
60000E
60000E
F0000E
F0000E
60000E
000000
0319C0
07BDE0
07BDE0
0319C0
ENDCHAR
STARTCHAR 00F6
ENCODING 246
SWIDTH 652 0
DWIDTH 30 0
BBX 23 32 3 0
BITMAP
0319C0
07BDE0
07BDE0
0319C0
000000
60000E
F0000E
F0000E
60000E
60000E
F0000E
F0000E
60000E
000000
60000E
F0000E
F0000E
60000E
000000
60000E
F0000E
F0000E
60000E
60000E
F0000E
F0000E
60000E
000000
0319C0
07BDE0
07BDE0
0319C0
ENDCHAR
STARTCHAR 00F9
ENCODING 249
SWIDTH 652 0
DWIDTH 30 0
BBX 23 32 3 0
BITMAP
60000E
F0000E
F0000E
60000E
000000
60000E
F0000E
F0000E
60000E
60000E
F0000E
F0000E
60000E
000000
60000E
F0000E
F0000E
60000E
000000
60000E
F0000E
F0000E
60000E
60000E
F0000E
F0000E
60000E
000000
0319C0
07BDE0
07BDE0
0319C0
ENDCHAR
STARTCHAR 00FA
ENCODING 250
SWIDTH 652 0
DWIDTH 30 0
BBX 23 32 3 0
BITMAP
60000E
F0000E
F0000E
60000E
000000
60000E
F0000E
F0000E
60000E
60000E
F0000E
F0000E
60000E
000000
60000E
F0000E
F0000E
60000E
000000
60000E
F0000E
F0000E
60000E
60000E
F0000E
F0000E
60000E
000000
0319C0
07BDE0
07BDE0
0319C0
ENDCHAR
STARTCHAR 00FB
ENCODING 251
SWIDTH 652 0
DWIDTH 30 0
BBX 23 32 3 0
BITMAP
60000E
F0000E
F0000E
60000E
000000
60000E
F0000E
F0000E
60000E
60000E
F0000E
F0000E
60000E
000000
60000E
F0000E
F0000E
60000E
000000
60000E
F0000E
F0000E
60000E
60000E
F0000E
F0000E
60000E
000000
0319C0
07BDE0
07BDE0
0319C0
ENDCHAR
STARTCHAR 00FD
ENCODING 253
SWIDTH 652 0
DWIDTH 30 0
BBX 23 32 3 0
BITMAP
60000E
F0000E
F0000E
60000E
000000
60000E
F0000E
F0000E
60000E
60000E
F0000E
F0000E
60000E
000000
0301C0
0781E0
0781E0
0301C0
000000
001800
003C00
003C00
001800
001800
003C00
003C00
001800
000000
001800
003C00
003C00
001800
ENDCHAR
STARTCHAR 2000
ENCODING 8192
SWIDTH 413 0
DWIDTH 19 0
BBX 0 0 0 0
BITMAP
ENDCHAR
STARTCHAR 2001
ENCODING 8193
SWIDTH 804 0
DWIDTH 37 0
BBX 0 0 0 0
BITMAP
ENDCHAR
STARTCHAR 2002
ENCODING 8194
SWIDTH 413 0
DWIDTH 19 0
BBX 0 0 0 0
BITMAP
ENDCHAR
STARTCHAR 2003
ENCODING 8195
SWIDTH 804 0
DWIDTH 37 0
BBX 0 0 0 0
BITMAP
ENDCHAR
STARTCHAR 2004
ENCODING 8196
SWIDTH 260 0
DWIDTH 12 0
BBX 0 0 0 0
BITMAP
ENDCHAR
STARTCHAR 2005
ENCODING 8197
SWIDTH 195 0
DWIDTH 9 0
BBX 0 0 0 0
BITMAP
ENDCHAR
STARTCHAR 2006
ENCODING 8198
SWIDTH 130 0
DWIDTH 6 0
BBX 0 0 0 0
BITMAP
ENDCHAR
STARTCHAR 2007
ENCODING 8199
SWIDTH 130 0
DWIDTH 6 0
BBX 0 0 0 0
BITMAP
ENDCHAR
STARTCHAR 2008
ENCODING 8200
SWIDTH 108 0
DWIDTH 5 0
BBX 0 0 0 0
BITMAP
ENDCHAR
STARTCHAR 2009
ENCODING 8201
SWIDTH 152 0
DWIDTH 7 0
BBX 0 0 0 0
BITMAP
ENDCHAR
STARTCHAR 200A
ENCODING 8202
SWIDTH 43 0
DWIDTH 2 0
BBX 0 0 0 0
BITMAP
ENDCHAR
STARTCHAR 2010
ENCODING 8208
SWIDTH 630 0
DWIDTH 29 0
BBX 23 4 3 15
BITMAP
63198C
F7BBDE
F7BFDE
7339CC
ENDCHAR
STARTCHAR 2011
ENCODING 8209
SWIDTH 630 0
DWIDTH 29 0
BBX 23 4 3 15
BITMAP
63198C
F7BBDE
F7BFDE
7339CC
ENDCHAR
STARTCHAR 2012
ENCODING 8210
SWIDTH 630 0
DWIDTH 29 0
BBX 23 4 3 15
BITMAP
63198C
F7BBDE
F7BFDE
7339CC
ENDCHAR
STARTCHAR 2013
ENCODING 8211
SWIDTH 630 0
DWIDTH 29 0
BBX 23 4 3 15
BITMAP
6319CC
F7BDDE
F7BDDE
7339CE
ENDCHAR
STARTCHAR 2014
ENCODING 8212
SWIDTH 1130 0
DWIDTH 52 0
BBX 46 4 3 15
BITMAP
3E1F07C1E0F0
FF3F9FE7F3FC
FF3FDFE7FBFC
7E1F07C3E0F8
ENDCHAR
STARTCHAR 202F
ENCODING 8239
SWIDTH 152 0
DWIDTH 7 0
BBX 0 0 0 0
BITMAP
ENDCHAR
STARTCHAR 205F
ENCODING 8287
SWIDTH 195 0
DWIDTH 9 0
BBX 0 0 0 0
BITMAP
ENDCHAR
STARTCHAR 25FC
ENCODING 9724
SWIDTH 695 0
DWIDTH 32 0
BBX 32 32 0 0
BITMAP
FFFFFFFF
FFFFFFFF
FFFFFFFF
FFFFFFFF
FFFFFFFF
FFFFFFFF
FFFFFFFF
FFFFFFFF
FFFFFFFF
FFFFFFFF
FFFFFFFF
FFFFFFFF
FFFFFFFF
FFFFFFFF
FFFFFFFF
FFFFFFFF
FFFFFFFF
FFFFFFFF
FFFFFFFF
FFFFFFFF
FFFFFFFF
FFFFFFFF
FFFFFFFF
FFFFFFFF
FFFFFFFF
FFFFFFFF
FFFFFFFF
FFFFFFFF
FFFFFFFF
FFFFFFFF
FFFFFFFF
FFFFFFFF
ENDCHAR
ENDFONT
